<svg width="183" height="172" viewBox="0 0 183 172" fill="none" xmlns="http://www.w3.org/2000/svg">
<path fill-rule="evenodd" clip-rule="evenodd" d="M65.1186 11.373C67.6152 11.2369 70.0969 11.3747 72.5637 11.7866C73.9791 12.724 74.3927 13.9647 73.8045 15.5092C61.7344 17.583 55.9438 24.7518 56.4327 37.0171C50.3658 41.384 46.6433 39.8677 45.2651 32.4673C45.7722 26.4906 48.2539 21.5272 52.7102 17.5772C56.7007 15.0302 60.8369 12.9625 65.1186 11.373Z" fill="#F6F6F6"/>
<path fill-rule="evenodd" clip-rule="evenodd" d="M40.3021 30.3996C39.7504 31.7786 39.1994 33.1567 38.6477 34.5357C34.9673 34.3339 33.5892 36.1257 34.5115 39.9127C34.5413 41.6449 34.8168 43.2994 35.3388 44.8761C37.1371 45.6016 38.5161 45.1879 39.4749 43.6352C40.0267 41.9808 40.5776 40.3263 41.1294 38.6719C43.9394 44.7611 48.6274 46.8292 55.1922 44.8761C59.9331 42.7054 62.6902 38.9829 63.4645 33.7085C71.3364 40.8905 78.7815 48.4737 85.7997 56.4573C89.3957 59.4957 93.5318 61.4256 98.2081 62.2479C112.269 62.6615 126.331 62.7996 140.397 62.6615C140.983 63.4093 141.811 63.6848 142.878 63.4887C142.35 55.4423 142.902 47.7217 144.533 40.3263C148.469 41.0824 151.364 43.2886 153.219 46.9441C153.494 54.1137 153.771 61.2825 154.046 68.4521C159.711 72.6114 163.295 78.1265 164.8 84.9967C165.075 94.6479 165.352 104.298 165.627 113.95C167.282 115.604 168.936 117.259 170.591 118.913C171.004 132.422 171.142 145.933 171.004 159.447C167.144 159.447 163.284 159.447 159.423 159.447C159.561 149.793 159.423 140.141 159.009 130.494C153.632 125.117 148.255 119.74 142.878 114.363C123.854 113.95 104.828 113.812 85.7997 113.95C85.937 121.675 85.7997 129.397 85.3861 137.112C83.7316 138.767 82.0772 140.421 80.4227 142.075C80.0091 147.859 79.8718 153.65 80.0091 159.447C76.1484 159.447 72.2886 159.447 68.4279 159.447C68.4279 143.73 68.4279 128.013 68.4279 112.295C64.2289 111.011 60.7818 108.529 58.0875 104.85C52.2399 91.0288 46.3111 77.2422 40.3021 63.4887C38.4466 62.683 36.5167 62.4067 34.5115 62.6615C33.6901 69.956 33.4138 77.401 33.6843 84.9967C32.8571 84.9967 32.0298 84.9967 31.2026 84.9967C27.4056 83.8212 24.7866 81.3395 23.3439 77.5516C22.9311 72.5957 22.793 67.6323 22.9303 62.6615C16.6479 62.0369 12.7875 58.5899 11.3491 52.3211C17.6337 45.207 24.2514 38.3137 31.2026 31.6404C33.2624 30.0331 35.6059 29.0686 38.2341 28.7451C39.3723 28.8973 40.0614 29.4491 40.3021 30.3996Z" fill="#F6F6F6"/>
<path fill-rule="evenodd" clip-rule="evenodd" d="M40.3019 30.3994C40.0976 33.2443 40.3731 36.0014 41.1291 38.6717C40.5774 40.3262 40.0265 41.9806 39.4747 43.6351C39.6865 40.5172 39.411 37.4838 38.6475 34.5356C39.1992 33.1566 39.7502 31.7784 40.3019 30.3994Z" fill="#F6F6F6"/>
<path fill-rule="evenodd" clip-rule="evenodd" d="M144.533 40.3259C142.901 47.7213 142.35 55.4418 142.878 63.4883C141.81 63.6843 140.983 63.4088 140.396 62.661C142.028 55.2656 142.58 47.5451 142.051 39.4986C143.119 39.3026 143.946 39.578 144.533 40.3259Z" fill="#F6F6F6"/>
<path fill-rule="evenodd" clip-rule="evenodd" d="M34.5116 62.6611C34.5116 70.3817 34.5116 78.103 34.5116 85.8235C33.1888 86.0452 32.0861 85.7689 31.2026 84.9963C32.0299 84.9963 32.8571 84.9963 33.6843 84.9963C33.4138 77.4007 33.6901 69.9556 34.5116 62.6611Z" fill="#F6F6F6"/>
<path fill-rule="evenodd" clip-rule="evenodd" d="M131.297 119.739C137.747 118.103 142.435 120.171 145.36 125.944C140.592 136.802 135.904 147.693 131.297 158.619C127.436 159.722 123.576 159.722 119.716 158.619C123.438 149.52 127.161 140.42 130.883 131.321C131.296 127.47 131.434 123.61 131.297 119.739Z" fill="#B9B9B9"/>
</svg>
